<svg
      xmlns="http://www.w3.org/2000/svg"
      width="175"
      height="57"
      display="inline"
      version="1"
    >
      <g
        fillOpacity="1"
        fillRule="evenodd"
        stroke="none"
        strokeLinecap="butt"
        strokeLinejoin="miter"
        strokeOpacity="1"
        strokeWidth="1"
        display="inline"
      >
        <path
          fill="#f15a23"
          d="M2.64 22.756l14.413 18.182L2.64 52.882V22.756z"
        ></path>
        <path
          fill="#f15a23"
          d="M8.44 52.882l10.846-9.073 7.496 9.073H8.441z"
        ></path>
        <path
          fill="#f15a23"
          d="M2.64 13.027L6.4 17.785 21.866 37.11l5.012-3.99s-4.16-4.898-6.954-10.364c-5.462-10.686-1.595-17.34-1.595-17.34H2.64v7.611z"
        ></path>
        <path
          fill="#f15a23"
          d="M24.07 40.094l5.105-4.216s4.874 6.416 10.526 7.931c7.407 1.985 10.686-2.87 10.686-2.87v11.943H34.119l3.668-3.172s-1.914 1.276-6.595-1.966c-2.762-1.914-7.121-7.65-7.121-7.65z"
        ></path>
        <path
          fill="#f15a23"
          d="M24.54 5.382s-1.628 2.218-.47 7.645c1.24 5.8 6.166 11.94 6.155 11.802 0 0 .316-6.096 3.894-9.673 7.625-7.625 16.268-3.086 16.268-3.086V5.417L24.54 5.382z"
        ></path>
        <path
          fill="#f15a23"
          d="M50.387 20.109s-4.822-4.13-9.015-4.13c-5.363 0-8.29 4.63-8.29 7.988 0 4.892 2.348 7.61 4.705 9.967 3.387 3.387 7.508 7.04 12.6 4.1V20.109z"
        ></path>
        <path
          fill="#005e6a"
          d="M105.304 5.88h11.38s10.08 15.263 15.034 21.57c4.954 6.305 10.286 13.488 10.286 13.488V9.298c0-1.367-3.588-3.418-3.588-3.418h13.122s-4.305 1.769-4.305 3.418v46.029s-4.132-2.291-8.817-7.735c-5.263-6.116-23.988-30.81-23.988-30.81v31.984c0 1.638 3.588 4.116 3.588 4.116h-12.712s3.486-2.498 3.486-4.116V9.298c0-1.453-3.486-3.418-3.486-3.418z"
        ></path>
        <path
          fill="#005e6a"
          d="M158.887 5.88h14.605s-3.922 1.857-3.922 3.418v39.468c0 1.705 3.922 4.116 3.922 4.116h-14.605s3.652-2.465 3.652-4.116V9.298c0-1.5-3.652-3.418-3.652-3.418z"
        ></path>
        <path
          fill="#005e6a"
          d="M62.337 5.88s3.786 1.888 3.786 3.418v39.468c0 1.678-3.786 4.116-3.786 4.116h21.636c1.352 0 16.497-2.477 16.497-14.153s-11.764-12.77-11.764-12.77 7.167-1.992 7.167-9.98c0-8.612-10.548-10.1-11.9-10.1H62.337zM73.83 25.185V10.491h8.79c1.352 0 6.085 1.579 6.085 7.437 0 4.828-4.733 7.257-6.086 7.257h-8.79zm0 3.854h10.142c1.352 0 9.33 2.073 9.33 8.995 0 7.057-7.978 9.558-9.33 9.558H73.83V29.04z"
        ></path>
      </g>
    </svg>